<svg viewBox="0 0 39 39" fill="none" xmlns="http://www.w3.org/2000/svg"><g clip-path="url(#clip0)"><path d="M7.921 32.907v.61C3.478 30.176.61 24.868.61 18.891.609 8.794 8.793.61 18.889.61c10.097 0 18.282 8.183 18.282 18.28 0 2.62-.549 5.113-1.549 7.367a6.696 6.696 0 0 0-9.902 2.383h-3.174V25.99a8.536 8.536 0 0 0 4.875-7.708v-6.703a3.652 3.652 0 0 0-3.656-3.657V4.876H17.67a7.306 7.306 0 0 0-7.312 7.312v6.093c0 3.4 1.992 6.337 4.875 7.708v2.651h-3.047a4.264 4.264 0 0 0-4.266 4.267z" fill="#5C9EFF"/><path d="M18.89.61c-.411 0-.816.019-1.22.045 9.528.628 17.063 8.55 17.063 18.237 0 9.685-7.535 17.607-17.062 18.235.403.027.808.045 1.219.045 10.095 0 18.28-8.185 18.28-18.281 0-10.095-8.185-18.28-18.28-18.28z" fill="#2287FF"/><path d="M35.622 26.259c.281.207.549.432.804.689a6.692 6.692 0 0 1 0 9.475 6.693 6.693 0 0 1-9.476 0 7.04 7.04 0 0 1-.688-.798 6.708 6.708 0 0 1 .688-8.677 6.697 6.697 0 0 1 8.672-.69z" fill="#D7E9FF"/><path d="M25.714 28.641h.006a6.707 6.707 0 0 0 .543 6.984 18.244 18.244 0 0 1-7.373 1.547c-4.12 0-7.916-1.358-10.969-3.656v-.61a4.262 4.262 0 0 1 4.266-4.265h3.047l1.828 1.22 1.828-.61 1.828.61 1.828-1.22h3.168z" fill="#fff"/><path d="M22.546 25.99v2.651l-1.828 1.219-1.828-.61-1.829.61-1.828-1.219v-2.65a8.446 8.446 0 0 0 3.657.822 8.455 8.455 0 0 0 3.656-.822z" fill="#fff"/><path d="M27.42 15.236v3.046a8.536 8.536 0 0 1-8.53 8.531 8.535 8.535 0 0 1-8.531-8.531v-3.058l2.437-2.425s2.783 1.218 6.094 1.218c3.308 0 6.093-1.218 6.093-1.218l2.438 2.437z" fill="#D7E9FF"/><path d="M24.983 12.798v5.484c0 3.4-1.993 6.337-4.875 7.709a8.401 8.401 0 0 1-2.437.725c.398.057.803.097 1.219.097a8.536 8.536 0 0 0 8.531-8.531v-3.047l-2.438-2.437z" fill="#94C1FF"/><path d="M27.42 11.58v3.655l-2.437-2.437s-2.785 1.219-6.093 1.219c-3.31 0-6.094-1.219-6.094-1.219l-2.438 2.425V12.19a7.306 7.306 0 0 1 7.313-7.313h6.093v3.047a3.652 3.652 0 0 1 3.657 3.656z" fill="#94C1FF"/><path d="M23.765 7.923V4.876h-2.438v4.266c2.022 0 3.656 1.024 3.656 3.047v.609l2.438 2.437V11.58a3.652 3.652 0 0 0-3.656-3.656z" fill="#5C9EFF"/><path d="M25.716 29.25h-3.169a.609.609 0 1 1 0-1.22h3.169a.609.609 0 1 1 0 1.22zM7.922 33.515a.609.609 0 0 1-.609-.61 4.88 4.88 0 0 1 4.875-4.874.609.609 0 1 1 0 1.219 3.66 3.66 0 0 0-3.656 3.656c0 .337-.273.61-.61.61z" fill="#116FFF"/><path d="M15.234 29.25h-3.046a.609.609 0 1 1 0-1.22h3.046a.609.609 0 1 1 0 1.22zM7.922 34.126a.609.609 0 0 1-.609-.61v-.522a.609.609 0 1 1 1.219 0v.523c0 .337-.273.61-.61.61z" fill="#116FFF"/><path d="M15.235 29.25a.609.609 0 0 1-.61-.61v-2.65a.609.609 0 1 1 1.22 0v2.65c0 .337-.273.61-.61.61zM22.547 29.25a.609.609 0 0 1-.609-.61v-2.65a.609.609 0 1 1 1.219 0v2.65c0 .337-.273.61-.61.61z" fill="#116FFF"/><path d="M18.891 27.422c-5.04 0-9.14-4.1-9.14-9.141a.61.61 0 1 1 1.218 0c0 4.368 3.554 7.922 7.922 7.922s7.922-3.554 7.922-7.922a.61.61 0 1 1 1.219 0c0 5.04-4.101 9.14-9.141 9.14z" fill="#116FFF"/><path d="M10.36 18.876a.61.61 0 0 1-.61-.61v-6.079a.61.61 0 1 1 1.22 0v6.08a.61.61 0 0 1-.61.61zM27.422 18.891a.609.609 0 0 1-.609-.61V11.58a.61.61 0 1 1 1.219 0v6.703c0 .336-.273.609-.61.609z" fill="#116FFF"/><path d="M27.422 12.188a.61.61 0 0 1-.61-.61 3.05 3.05 0 0 0-3.046-3.047.61.61 0 1 1 0-1.219 4.27 4.27 0 0 1 4.265 4.266.61.61 0 0 1-.61.61z" fill="#116FFF"/><path d="M23.766 8.531a.61.61 0 0 1-.61-.61V4.876a.61.61 0 1 1 1.219 0v3.047a.61.61 0 0 1-.61.61zM10.36 12.797a.61.61 0 0 1-.61-.61c0-4.368 3.554-7.921 7.922-7.921a.61.61 0 1 1 0 1.218 6.711 6.711 0 0 0-6.703 6.703.61.61 0 0 1-.61.61zM27.422 15.844a.608.608 0 0 1-.43-.179l-2.438-2.438a.609.609 0 1 1 .861-.861l2.438 2.437a.609.609 0 0 1-.43 1.04z" fill="#116FFF"/><path d="M18.89 14.625c-3.397 0-6.219-1.218-6.337-1.27a.61.61 0 0 1 .488-1.117c.027.012 2.716 1.168 5.85 1.168 3.144 0 5.823-1.156 5.85-1.168a.609.609 0 1 1 .487 1.117c-.118.052-2.941 1.27-6.337 1.27z" fill="#116FFF"/><path d="M10.36 15.836a.609.609 0 0 1-.43-1.04l2.437-2.43a.609.609 0 1 1 .86.862l-2.437 2.43a.605.605 0 0 1-.43.178zM17.062 30.468a.614.614 0 0 1-.337-.102l-1.829-1.219a.61.61 0 1 1 .677-1.014l1.828 1.219a.609.609 0 0 1-.339 1.116z" fill="#116FFF"/><path d="M17.063 30.468a.609.609 0 0 1-.193-1.188l1.828-.609a.61.61 0 1 1 .386 1.156l-1.828.61a.622.622 0 0 1-.193.031zM20.72 30.468a.608.608 0 0 1-.34-1.116l1.829-1.219a.61.61 0 0 1 .677 1.014l-1.828 1.219a.614.614 0 0 1-.338.102z" fill="#116FFF"/><path d="M20.719 30.468a.615.615 0 0 1-.193-.031l-1.828-.61a.61.61 0 0 1 .386-1.156l1.828.61a.61.61 0 0 1-.193 1.187zM18.91 32.906a.611.611 0 0 1-.613-.61c0-.337.27-.609.606-.609h.006a.609.609 0 1 1 0 1.219zM18.91 35.343a.611.611 0 0 1-.613-.61c0-.336.27-.608.606-.608h.006a.609.609 0 1 1 0 1.218zM23.766 5.484h-6.094a.61.61 0 1 1 0-1.218h6.094a.61.61 0 1 1 0 1.218z" fill="#116FFF"/><path d="M18.891 37.78C8.475 37.78.001 29.308.001 18.89.001 8.475 8.475 0 18.891 0s18.89 8.474 18.89 18.89c0 2.65-.538 5.214-1.6 7.62a.609.609 0 1 1-1.115-.49 17.555 17.555 0 0 0 1.497-7.13C36.562 9.146 28.634 1.22 18.89 1.22S1.22 9.146 1.22 18.89 9.148 36.562 18.89 36.562c2.48 0 4.877-.503 7.126-1.495a.61.61 0 0 1 .491 1.115 18.747 18.747 0 0 1-7.617 1.599z" fill="#116FFF"/><path d="M31.687 39a7.26 7.26 0 0 1-5.17-2.142 7.26 7.26 0 0 1-2.142-5.17 7.26 7.26 0 0 1 2.143-5.17 7.26 7.26 0 0 1 5.17-2.143 7.26 7.26 0 0 1 5.17 2.142A7.26 7.26 0 0 1 39 31.687a7.26 7.26 0 0 1-2.143 5.171A7.26 7.26 0 0 1 31.687 39zm0-13.407a6.048 6.048 0 0 0-4.308 1.786 6.048 6.048 0 0 0-1.785 4.308c0 1.628.633 3.159 1.785 4.31a6.051 6.051 0 0 0 4.308 1.784 6.05 6.05 0 0 0 4.308-1.785 6.052 6.052 0 0 0 1.786-4.309 6.048 6.048 0 0 0-1.785-4.308 6.048 6.048 0 0 0-4.309-1.786z" fill="#116FFF"/><path d="M34.734 32.296h-6.093a.609.609 0 1 1 0-1.218h6.093a.609.609 0 1 1 0 1.218z" fill="#116FFF"/><path d="M31.688 35.343a.609.609 0 0 1-.61-.61V28.64a.609.609 0 1 1 1.22 0v6.094c0 .337-.273.61-.61.61z" fill="#116FFF"/></g><defs><clipPath id="clip0"><path fill="#fff" d="M0 0h39v39H0z"/></clipPath></defs></svg>
