<svg viewBox="0 0 51 51" fill="none" xmlns="http://www.w3.org/2000/svg"><path d="M39.84 38.25H7.96v4.78h35.07v-4.78h-3.19zM38.25 20.72a12.87 12.87 0 0 0-3.73-9.02l-6.76 6.76c.57.59.93 1.38.93 2.26h9.56zM25.5 33.47c3.52 0 6.71-1.43 9.02-3.73l-6.76-6.77a3.2 3.2 0 0 1-2.26.94v9.56zM25.5 17.53V7.97c-3.52 0-6.71 1.43-9.02 3.73l6.76 6.76a3.2 3.2 0 0 1 2.26-.93zM13.32 24.51a12.9 12.9 0 0 0 3.16 5.23l6.76-6.77a3.2 3.2 0 0 1-.93-2.25h-9.56a12.87 12.87 0 0 0 .57 3.8z" fill="#CCE4FF"/><path d="M43.03 37.45h-2.39v-3.98a.8.8 0 0 0-.8-.8H31.9a13.65 13.65 0 0 0 6.55-7.92c.27-.87.45-1.75.54-2.64v-.01a15.38 15.38 0 0 0 0-2.77 13.72 13.72 0 0 0-3.02-7.22l-.01-.02A13.5 13.5 0 0 0 25.5 7.17a13.5 13.5 0 0 0-13.48 12.16 15.1 15.1 0 0 0 0 2.78 13.7 13.7 0 0 0 3.02 7.22l.01.02a13.67 13.67 0 0 0 4.06 3.32h-7.95a.8.8 0 0 0-.8.8v3.98h-2.4a.8.8 0 0 0-.79.8v4.78c0 .44.36.8.8.8h35.06a.8.8 0 0 0 .8-.8v-4.78a.8.8 0 0 0-.8-.8zm-26.76-9.13c-.23-.27-.44-.56-.62-.82l-.06-.1a12.12 12.12 0 0 1-1.98-5.45l-.03-.43h8.02c.1.5.3.97.58 1.4l-5.68 5.67-.23-.27zm-2.19-11.16c.35-1.11.86-2.17 1.5-3.13l.15-.2c.16-.23.34-.47.53-.7l.02-.03.22-.25 5.68 5.67c-.29.43-.48.9-.58 1.4h-8.02l.03-.43c.08-.78.24-1.56.47-2.33zm20.65-4.04c.23.27.44.56.62.82l.06.1a12.12 12.12 0 0 1 1.98 5.45l.03.43H29.4c-.1-.5-.3-.97-.58-1.4l5.68-5.67.23.27zm2.19 11.15a12.13 12.13 0 0 1-1.5 3.14l-.15.2c-.16.23-.34.47-.53.7l-.02.02-.22.26-5.68-5.67c.29-.43.48-.9.58-1.4h8.02l-.03.42c-.08.79-.24 1.57-.47 2.33zm-13.1-1.86a2.4 2.4 0 0 1-.02-3.38 2.4 2.4 0 0 1 3.39 0 2.4 2.4 0 0 1 0 3.38c-.91.9-2.47.9-3.38 0zm2.48 2.21c.5-.1.97-.3 1.4-.58l5.67 5.67a11.86 11.86 0 0 1-7.07 2.92v-8zm1.4-7.23c-.43-.28-.9-.47-1.4-.57V8.8c2.62.18 5.08 1.2 7.07 2.93l-5.67 5.66zm-3-.57c-.5.1-.97.3-1.4.58l-5.67-5.67A11.86 11.86 0 0 1 24.7 8.8v8.02zm-1.4 7.22c.43.28.9.48 1.4.58v8.01a11.86 11.86 0 0 1-7.07-2.92l5.67-5.67zM11.95 34.27h27.1v3.18h-27.1v-3.18zm30.28 7.96H8.77v-3.18h33.47v3.18z" fill="#007AFF"/></svg>
