<svg viewBox="0 0 41 41" fill="none" xmlns="http://www.w3.org/2000/svg"><path d="M6.83 40.32h27.34c.75 0 1.36-.62 1.36-1.37V2.05c0-.75-.6-1.37-1.36-1.37h-7.52v2.74h5.47c.37 0 .68.3.68.68v32.8c0 .38-.3.68-.68.68H8.88a.68.68 0 0 1-.68-.68V4.1c0-.38.3-.68.68-.68h5.47V.68H6.83c-.75 0-1.36.62-1.36 1.37v36.9c0 .75.6 1.37 1.36 1.37z" fill="#BDDBFF"/><path d="M14.35 4.78h12.3V.68h-12.3v4.1zM12.3 8.88v5.47h5.47V8.88H12.3zM12.3 33.48h5.47v-5.46H12.3v5.46zM12.3 23.92h5.47v-5.47H12.3v5.47z" fill="#BDDBFF"/><path d="M34.17 0H6.83C5.7 0 4.78.92 4.78 2.05v36.9c0 1.13.92 2.05 2.05 2.05h27.34c1.13 0 2.05-.92 2.05-2.05V2.05C36.22.92 35.3 0 34.17 0zM14.35 5.47h12.3c.38 0 .68-.3.68-.69V4.1h4.79v32.8H8.88V4.1h4.79v.68c0 .38.3.69.68.69zm11.62-4.1V4.1H15.03V1.37h10.94zm8.88 37.58c0 .38-.3.68-.68.68H6.83a.68.68 0 0 1-.68-.68V2.05c0-.38.3-.68.68-.68h6.84v1.36H8.88c-.75 0-1.36.62-1.36 1.37v32.8c0 .75.6 1.37 1.36 1.37h23.24c.75 0 1.36-.62 1.36-1.37V4.1c0-.75-.6-1.37-1.36-1.37h-4.79V1.37h6.84c.37 0 .68.3.68.68v36.9z" fill="#3D9AE2"/><path d="M11.62 8.88v5.47c0 .38.3.68.68.68h5.47c.37 0 .68-.3.68-.68v-3.82l1.17-1.16a.68.68 0 0 0-.97-.97l-.25.25a.68.68 0 0 0-.63-.45H12.3c-.38 0-.68.3-.68.68zm1.36.69h4.1v.4l-1.36 1.36-.89-.88a.68.68 0 0 0-.96.97l1.36 1.36c.27.27.7.27.97 0l.88-.88v1.77h-4.1v-4.1zM18.65 17.97l-.25.24a.68.68 0 0 0-.63-.44H12.3c-.38 0-.68.3-.68.68v5.47c0 .37.3.68.68.68h5.47c.37 0 .68-.3.68-.68V20.1l1.17-1.17a.68.68 0 0 0-.97-.96zm-1.57 5.26h-4.1v-4.1h4.1v.4l-1.36 1.37-.89-.88a.68.68 0 0 0-.96.96l1.36 1.37c.27.27.7.27.97 0l.88-.88v1.76zM18.65 27.53l-.25.25a.68.68 0 0 0-.63-.45H12.3c-.38 0-.68.3-.68.69v5.46c0 .38.3.69.68.69h5.47c.37 0 .68-.3.68-.69v-3.81l1.17-1.17a.68.68 0 0 0-.97-.97zm-1.57 5.27h-4.1v-4.1h4.1v.4l-1.36 1.37-.89-.89a.68.68 0 0 0-.96.97l1.36 1.37c.27.26.7.26.97 0l.88-.89v1.77zM21.87 15.03h6.83a.68.68 0 0 0 0-1.36h-6.83a.68.68 0 0 0 0 1.36zM21.87 12.3h5.46a.68.68 0 1 0 0-1.37h-5.46a.68.68 0 0 0 0 1.37zM21.87 24.6h6.83a.68.68 0 0 0 0-1.37h-6.83a.68.68 0 0 0 0 1.37zM21.87 21.87h5.46a.68.68 0 0 0 0-1.37h-5.46a.68.68 0 0 0 0 1.37zM21.87 34.17h6.83a.68.68 0 0 0 0-1.37h-6.83a.68.68 0 0 0 0 1.37zM21.87 31.43h5.46a.68.68 0 0 0 0-1.36h-5.46a.68.68 0 0 0 0 1.36z" fill="#3D9AE2"/></svg>
