<svg viewBox="0 0 45 45" fill="none" xmlns="http://www.w3.org/2000/svg"><g clip-path="url(#clip0)"><path d="M36.18 35.54l-5.03-6.48-1.6-2.06h5.76a.75.75 0 0 0 .53-1.28l-4.38-4.34-4.16-4.13h6.83l-10.5-13.5-9.56 12.3a.74.74 0 0 0 .59 1.2h5.3l-3.9 3.87L10.12 27h7.58l-3.27 4.2-3.37 4.34a.75.75 0 0 0 .59 1.21H35.6a.74.74 0 0 0 .58-1.2zm-8.8-12.29a1.5 1.5 0 1 1-3 0 1.5 1.5 0 0 1 3 0zM22.13 12a1.5 1.5 0 1 1 0 3 1.5 1.5 0 0 1 0-3zm-1.5 21a1.5 1.5 0 1 1 0-3 1.5 1.5 0 0 1 0 3z" fill="#BDDBFF"/><path d="M31.08 27.75h4.23a1.5 1.5 0 0 0 1.06-2.56L29.12 18h4.1a2.24 2.24 0 1 0 1.66-.75.74.74 0 0 0-.16-.46L24.87 4.13a2.25 2.25 0 1 0-2.48 0l-8.9 11.45A1.5 1.5 0 0 0 14.66 18h3.48l-2.55 2.53a.94.94 0 0 0-.07.06L9.6 26.47a.75.75 0 0 0-.2.66 2.25 2.25 0 1 0 2.4.62h4.38l-5.7 7.32a1.5 1.5 0 0 0 1.18 2.43h8.8l-1.32 6.6a.75.75 0 0 0 .74.9h7.5a.75.75 0 0 0 .73-.9l-1.32-6.6h8.8a1.5 1.5 0 0 0 1.19-2.42l-5.7-7.33zm4.55-8.25a.75.75 0 1 1-1.5 0 .75.75 0 0 1 1.5 0zm-13.5-8.25c-.9 0-1.7.53-2.06 1.35-.82.07-1.65.11-2.47.13l6.03-7.76 4.43 5.7c-1.34.64-2.76 1.11-4.22 1.4a2.24 2.24 0 0 0-1.71-.82zm.75 2.25a.75.75 0 1 1-1.5 0 .75.75 0 0 1 1.5 0zm.75-12a.75.75 0 1 1 0 1.5.75.75 0 0 1 0-1.5zm-7.1 20.21a.7.7 0 0 0 .06-.06l3.9-3.87a.75.75 0 0 0-.53-1.28h-5.3l1.76-2.26h.46c1.03 0 2.07-.04 3.1-.13a2.24 2.24 0 0 0 4.4-.6v-.03c1.6-.32 3.16-.86 4.62-1.6l3.6 4.62h-5.3a.75.75 0 0 0-.53 1.28l3.46 3.43c-.78.38-1.59.68-2.41.92a2.23 2.23 0 0 0-4.16.84 37.4 37.4 0 0 1-8.47.07l1.33-1.33zm10.1 1.54a.75.75 0 1 1-1.5 0 .75.75 0 0 1 1.5 0zM10.13 30a.75.75 0 1 1 0-1.5.75.75 0 0 1 0 1.5zm8.25-3.33a.75.75 0 0 0-.67-.42h-5.76l1.88-1.87a37.68 37.68 0 0 0 10.15.06 2.24 2.24 0 0 0 4.11-.83c1.13-.3 2.22-.74 3.25-1.3l3.97 3.94h-5.76a.75.75 0 0 0-.6 1.21L30 28.81c-2.33.99-4.8 1.58-7.33 1.76a2.24 2.24 0 0 0-4.15.16c-.9-.01-1.78-.06-2.65-.14l2.43-3.13c.18-.22.21-.53.08-.79zm3 4.83a.75.75 0 1 1-1.5 0 .75.75 0 0 1 1.5 0zm5.08 12H20.8l1.2-6h3.27l1.2 6zM11.66 36l3.12-4c1.22.13 2.47.21 3.73.23a2.24 2.24 0 0 0 4.28-.16c2.82-.2 5.58-.89 8.15-2.05L35.6 36H11.67z" fill="#3D9AE2"/></g><defs><clipPath id="clip0"><path fill="#fff" d="M0 0h45v45H0z"/></clipPath></defs></svg>
