<svg viewBox="0 0 40 40" fill="none" xmlns="http://www.w3.org/2000/svg"><path d="M.667 26.667a2.667 2.667 0 0 0 2.666 2.666h33.333a2.667 2.667 0 0 0 2.667-2.666V24H.667v2.667zM16 34.667h8l-.667-5.334h-6.666L16 34.667zM13.334 34.667v2.666h13.333v-2.666H13.333zM8 6.667V12h5.333V8l-2 2L10 8.667 11.333 10l2-2V6.667H8zM8 14.667V20h5.333v-4l-2 2L10 16.667 11.333 18l2-2v-1.333H8z" fill="#BDDBFF"/><path d="M36.667 2H3.333A3.337 3.337 0 0 0 0 5.333v21.334A3.337 3.337 0 0 0 3.333 30h12.579l-.5 4h-2.079a.667.667 0 0 0-.666.667v2.666c0 .369.298.667.666.667h13.334a.667.667 0 0 0 .666-.667v-2.666a.667.667 0 0 0-.666-.667h-2.079l-.5-4h12.579A3.337 3.337 0 0 0 40 26.667V5.333A3.337 3.337 0 0 0 36.667 2zM3.333 3.333h33.334a2 2 0 0 1 2 2v18H1.333v-18a2 2 0 0 1 2-2zM26 36.667H14v-1.334h12v1.334zM23.245 34h-6.49l.5-4h5.49l.5 4zm13.422-5.333H3.333a2 2 0 0 1-2-2v-2h37.334v2a2 2 0 0 1-2 2z" fill="#3D9AE2"/><path d="M35.586 26.053a.678.678 0 0 0-.726.14.676.676 0 0 0 0 .947c.031.029.065.055.1.08a.513.513 0 0 0 .12.06.42.42 0 0 0 .12.04.666.666 0 0 0 .607-1.127.771.771 0 0 0-.22-.14zM8 12.667h5.334A.667.667 0 0 0 14 12V8.276l1.805-1.805-.943-.942-.908.908a.662.662 0 0 0-.62-.437H8a.667.667 0 0 0-.667.667V12c0 .368.299.667.667.667zm.667-5.334h4v.39l-1.333 1.334-.862-.862-.943.943 1.333 1.333c.26.26.682.26.943 0l.862-.862v1.724h-4v-4zM8 20.667h5.334A.667.667 0 0 0 14 20v-3.724l1.805-1.805-.943-.942-.908.908a.662.662 0 0 0-.62-.437H8a.667.667 0 0 0-.667.667V20c0 .368.299.667.667.667zm.667-5.334h4v.39l-1.333 1.334-.862-.862-.943.943 1.333 1.333c.26.26.682.26.943 0l.862-.862v1.724h-4v-4zM18.666 11.333h12v1.334h-12v-1.334zM18.666 7.333h8v1.334h-8V7.333zM18.666 19.333h12v1.334h-12v-1.334zM18.666 15.333h2.667v1.334h-2.666v-1.334zM22.666 15.333h8v1.334h-8v-1.334z" fill="#3D9AE2"/></svg>
