<svg viewBox="0 0 32 32" fill="none" xmlns="http://www.w3.org/2000/svg"><g clip-path="url(#clip0)"><path d="M31.47 30.11a3.93 3.93 0 0 1-3.37-1.82.55.55 0 0 0-1 0 4.03 4.03 0 0 1-6.74 0 .55.55 0 0 0-1 0 4.03 4.03 0 0 1-6.73 0 .55.55 0 0 0-1 0 3.93 3.93 0 0 1-3.36 1.82A3.93 3.93 0 0 1 4.9 28.3a.55.55 0 0 0-1 0 3.93 3.93 0 0 1-3.37 1.82v1.6h30.94v-1.6z" fill="#E3E7F2"/><path d="M14.13 12.37c-.58.45-1.3 1.03-2.2 1.77C8.73 16.8 8.73 20 8.73 20A4.07 4.07 0 0 1 11.58 24a.53.53 0 0 1-.93.35c-.3-.34-.63-.64-.86-.64h-.35A4.07 4.07 0 0 0 6.59 20s0-3.2 3.2-5.86 4.27-3.2 4.27-3.2c.31.42.34.99.07 1.43zM21 10.95a5.93 5.93 0 0 1-.55 2.12c-.9 1.81-2.68 1.82-3.93 1.54.8-.23 1.45-.79 1.8-1.54.3-.67.5-1.39.54-2.12h2.13z" fill="#D4E1F4"/><path d="M27.8 6.71a.52.52 0 0 1-.47-.42C27.08 4.97 25.86.84 20.46.84c-.48 0-.92 0-1.34.03-4.27.24-5.6 1.56-5.6 1.56-.3-.25-.63-.48-.97-.68A6.13 6.13 0 0 0 8.22.9c-.8.18-1.54.54-2.17 1.07a.53.53 0 0 0 .04.84c.81.57 2.26 1.7 2.64 2.83 0 0-5.34 4.26-4.27 14.37A4.07 4.07 0 0 0 1.6 24a.54.54 0 0 0 .93.35c.3-.34.63-.64.86-.64H5c.2-.02.38-.09.54-.2.38-.25.74-.54 1.06-.86 0 0 1.07 1.06 1.6 1.06h1.25A4.07 4.07 0 0 0 6.59 20s0-3.2 3.2-5.86 4.27-3.2 4.27-3.2c.31.42.34.99.07 1.43.65-.52 1.34-1 2.06-1.42 0 0 .54.53 0 1.6-.18.37-.4.72-.63 1.06a.53.53 0 0 0 .26.81c.23.08.46.14.7.2.8-.24 1.45-.8 1.8-1.55.3-.67.5-1.39.54-2.12h9.6s2.13 0 2.13-2.13c0-1.65-1.93-2.02-2.8-2.1z" fill="#D4E1F4"/><path d="M28.46 8.82c0 2.13-2.13 2.13-2.13 2.13h-7.47a5.93 5.93 0 0 1-.55 2.12c-.34.75-1 1.31-1.79 1.54a5.7 5.7 0 0 1-.7-.19.53.53 0 0 1-.26-.81c.24-.34.45-.7.63-1.06.54-1.07 0-1.6 0-1.6-.72.42-1.4.9-2.06 1.42.27-.44.24-1-.07-1.42 0 0-1.07.53-4.27 3.2C6.6 16.8 6.6 20 6.6 20c1.64.51 2.78 2 2.85 3.72H8.19c-.53 0-1.6-1.06-1.6-1.06-.32.32-.68.61-1.06.86-.16.11-.35.18-.54.2H3.4c-.23 0-.56.3-.86.64A.54.54 0 0 1 1.6 24v-.29A4.07 4.07 0 0 1 4.47 20C3.39 9.89 8.73 5.63 8.73 5.63 8.35 4.5 6.9 3.37 6.09 2.8a.53.53 0 0 1-.04-.84A5.16 5.16 0 0 1 8.22.89c1.5-.26 3.04.05 4.33.86.34.2.67.43.98.68 0 0 1.32-1.32 5.59-1.56a6.47 6.47 0 0 1 6.08 5.42c.04.23.23.4.46.42.86.09 2.8.46 2.8 2.11z" fill="#E3E7F2"/><path d="M23.13 10.95V11s0 2.55-1.9 3.47a.54.54 0 0 1-.77-.48v-.92h-.01c.3-.68.5-1.4.54-2.13h2.14z" fill="#A4C2F7"/><path d="M24 10.91l-.05.04h-2.96a5.92 5.92 0 0 1-.54 2.12l-.12.22-.08.12a2.66 2.66 0 0 1-.93.91l-.19.11h-.01a3.48 3.48 0 0 1-1.47.31 5.89 5.89 0 0 1-1.83-.32.53.53 0 0 1-.26-.81c.24-.34.45-.7.63-1.06.54-1.07 0-1.6 0-1.6s-1.06.53-4.26 3.2C8.73 16.8 8.73 20 8.73 20c.33.1.66.26.96.46A3.87 3.87 0 0 1 11.58 24a.53.53 0 0 1-.93.35c-.3-.34-.63-.64-.86-.64H8.2c-.5 0-1.46-.93-1.59-1.05v-.01l-.07-.1-.13.08S6.4 2.91 24 10.91z" fill="#A4C2F7"/><path d="M24.2 6.7a.53.53 0 1 1-1.07 0 .53.53 0 0 1 1.06 0z" fill="#428DFF"/><path d="M1.6 23.72v.3a.54.54 0 0 0 .93.34c.2-.24.42-.43.67-.59v-.05A4.07 4.07 0 0 1 6.06 20C4.99 9.89 10.32 5.62 10.32 5.62 9.95 4.5 8.5 3.37 7.7 2.8a.53.53 0 0 1-.04-.85A5.15 5.15 0 0 1 9.82.9l.29-.05a5.04 5.04 0 0 0-4.06 1.11.53.53 0 0 0 .04.85c.81.57 2.26 1.7 2.63 2.82 0 0-5.33 4.27-4.26 14.38-1.64.51-2.79 2-2.85 3.72zM11.4 23.72H9.8c.22 0 .55.3.85.64a.53.53 0 0 0 .93-.35v-.24a.44.44 0 0 0-.19-.05zM21.23 14.48c.3-.15.6-.36.83-.62v-.78h-.01l-.12.2-.03.06a2.81 2.81 0 0 1-1.18 1.1h-.02c.16.1.36.12.53.04z" fill="#fff"/><path d="M3.93 20.05c-.27-2.35-.17-4.74.31-7.06.3-1.45.79-2.86 1.46-4.18.34-.66.73-1.3 1.17-1.9a9.9 9.9 0 0 1 1.52-1.7l.67.83c-.5.45-.94.95-1.33 1.5-.4.56-.77 1.15-1.08 1.76a15.45 15.45 0 0 0-1.37 3.91 21.2 21.2 0 0 0-.3 6.73l-1.05.11z" fill="#fff"/><path d="M4.06 16.16l.1.06c.02.01.05.03.09.03l.1.02c.14 0 .28-.04.4-.13.04-.05.09-.1.12-.17a.53.53 0 0 0-.07-.57.58.58 0 0 0-.17-.13.52.52 0 0 0-.58.05.56.56 0 0 0-.06.77l.07.07z" fill="#428DFF"/><path d="M15.12 13.3a1.06 1.06 0 0 0 .53 1.63c.92.3 2.68.69 4.06-.21.11-.08.23-.16.33-.25a1.06 1.06 0 0 0 1.42.49c1.66-.8 2.07-2.61 2.17-3.48h4.83a2.57 2.57 0 0 0 2.66-2.66c0-1.46-1.22-2.44-3.26-2.63C27.59 4.81 26.28.3 20.46.3c-4.15 0-6.17.96-6.93 1.46-1.1-.78-4.56-2.85-7.81-.22-.26.21-.4.53-.4.86.02.34.2.65.47.84.92.58 1.7 1.35 2.3 2.26-.45.43-.86.9-1.22 1.41-.44.6-.83 1.24-1.17 1.9a16.5 16.5 0 0 0-1.46 4.18c-.03.18-.09.36-.11.54-.05.3.15.57.44.62.29.05.56-.14.6-.43.03-.17.08-.34.12-.5.27-1.37.73-2.68 1.36-3.92.32-.61.68-1.2 1.08-1.76.39-.54.83-1.05 1.33-1.5a.53.53 0 0 0 .17-.58c-.4-1.21-1.76-2.35-2.84-3.09 3.2-2.58 6.64.34 6.79.47.2.17.52.17.72-.02.01-.02 1.59-1.45 6.56-1.45 4.86 0 6.06 3.51 6.34 5.02.1.46.48.81.94.86.87.08 2.31.4 2.31 1.57a1.52 1.52 0 0 1-1.6 1.6H21c-.28 0-.51.2-.54.48-.13 1.45-.58 2.43-1.33 2.92-1 .66-2.4.34-3.13.1.25-.36.48-.74.67-1.13.56-1.12.2-1.92-.1-2.22a.53.53 0 0 0-.61-.1c-.05.03-1.16.6-4.37 3.26-3.35 2.8-3.4 6.13-3.4 6.27 0 .24.16.45.4.51a3.55 3.55 0 0 1 2.47 3.5c-.5-.57-.9-.82-1.26-.82H8.2a3.98 3.98 0 0 1-1.23-.9.53.53 0 0 0-.76 0c-.34.37-.76.68-1.22.9H3.4c-.37 0-.76.25-1.25.81a3.52 3.52 0 0 1 2.47-3.49c.24-.07.4-.31.37-.57-.03-.69-.11-1.38-.11-2.08 0-.3-.25-.52-.54-.52-.3 0-.53.24-.53.54 0 .59.06 1.17.1 1.76a4.55 4.55 0 0 0-2.83 4.39 1.07 1.07 0 0 0 1.86.68c.14-.18.31-.33.5-.45H5a3 3 0 0 0 1.6-.87c.43.45 1 .75 1.6.87h1.56c.2.12.36.27.5.45a1.05 1.05 0 0 0 1.16.3c.41-.16.7-.54.7-.98a4.55 4.55 0 0 0-2.82-4.4 7.99 7.99 0 0 1 2.98-5.08 45.4 45.4 0 0 1 3.62-2.79 1.6 1.6 0 0 1-.17.55 7.5 7.5 0 0 1-.6 1zm6.35-1.82h1.08c-.1.7-.44 1.98-1.56 2.52v-.84c.24-.53.4-1.1.48-1.68zM31.47 29.58A3.4 3.4 0 0 1 28.55 28a1.08 1.08 0 0 0-1.9 0 3.5 3.5 0 0 1-5.83 0 1.08 1.08 0 0 0-1.9 0 3.5 3.5 0 0 1-5.83 0 1.08 1.08 0 0 0-1.9 0 3.4 3.4 0 0 1-2.92 1.57A3.4 3.4 0 0 1 5.35 28c-.2-.34-.56-.55-.95-.56-.4 0-.76.22-.95.56a3.4 3.4 0 0 1-2.92 1.57.53.53 0 1 0 0 1.06 4.48 4.48 0 0 0 3.87-2.12l.04.05a4.48 4.48 0 0 0 3.83 2.07 4.48 4.48 0 0 0 3.86-2.12l.05.05a4.56 4.56 0 0 0 7.68-.05l.05.05a4.56 4.56 0 0 0 7.69-.05l.04.05a4.48 4.48 0 0 0 3.83 2.07.53.53 0 1 0 0-1.06z" fill="#428DFF"/></g><defs><clipPath id="clip0"><path fill="#fff" d="M0 0h32v32H0z"/></clipPath></defs></svg>
