<svg viewBox="0 0 33 34" fill="none" xmlns="http://www.w3.org/2000/svg">
<path d="M10.31 15.94c0 6.79 2.57 12.94 6.76 17.51a9.9 9.9 0 0 1-.57.02c-7.97 0-14.44-6.66-14.44-14.88v-2.65h8.25z" fill="#5C9EFF"/>
<path d="M30.94 15.94v2.65c0 8.02-6.16 14.56-13.87 14.86a25.84 25.84 0 0 1-6.76-17.51h20.63z" fill="#94C1FF"/>
<path d="M25.78 15.94H7.22c0-5.28 4.16-15.4 9.28-15.4 5.13 0 9.28 10.12 9.28 15.4z" fill="#D7E9FF"/>
<path d="M16.5.53c-.35 0-.7.05-1.03.14 4.64 1.22 8.25 10.35 8.25 15.27h2.06c0-5.28-4.15-15.4-9.28-15.4z" fill="#94C1FF"/>
<path d="M16.5 34C8.26 34 1.55 27.09 1.55 18.6c0-.3.23-.54.51-.54.29 0 .52.24.52.53 0 7.91 6.24 14.35 13.92 14.35s13.92-6.44 13.92-14.35c0-.29.23-.53.52-.53.28 0 .51.24.51.53 0 8.5-6.7 15.41-14.95 15.41zM30.94 16.47H2.06a.52.52 0 0 1-.51-.53c0-.3.23-.53.51-.53h28.88c.28 0 .51.23.51.53 0 .3-.23.53-.51.53z" fill="#116FFF"/>
<path d="M2.06 19.13a.52.52 0 0 1-.51-.54v-2.65c0-.3.23-.53.51-.53.29 0 .52.23.52.53v2.65c0 .3-.23.54-.52.54zM30.94 19.13a.52.52 0 0 1-.52-.54v-2.65c0-.3.23-.53.52-.53.28 0 .51.23.51.53v2.65c0 .3-.23.54-.51.54zM25.78 16.47a.52.52 0 0 1-.51-.53c0-5.03-3.97-14.88-8.77-14.88-4.8 0-8.76 9.85-8.76 14.88 0 .3-.23.53-.52.53a.52.52 0 0 1-.52-.53C6.7 10.62 10.94 0 16.5 0c5.56 0 9.8 10.62 9.8 15.94 0 .3-.23.53-.52.53z" fill="#116FFF"/>
<path d="M18.05 7.97h-3.1a.52.52 0 0 1-.51-.53c0-.3.23-.53.51-.53h3.1c.28 0 .51.23.51.53 0 .3-.23.53-.51.53z" fill="#116FFF"/>
<path d="M18.05 13.28a.51.51 0 0 1-.44-.26l-3.1-5.3a.54.54 0 0 1 .18-.74.5.5 0 0 1 .7.18l3.1 5.32c.15.25.07.57-.18.73a.5.5 0 0 1-.26.07z" fill="#116FFF"/>
<path d="M18.05 13.28h-3.1a.52.52 0 0 1-.51-.53c0-.3.23-.53.51-.53h3.1c.28 0 .51.24.51.53 0 .3-.23.53-.51.53zM16.5 7.97a.52.52 0 0 1-.51-.53V6.37c0-.29.23-.53.51-.53.29 0 .52.24.52.54v1.06c0 .3-.23.53-.52.53z" fill="#116FFF"/>
<path d="M16.5 14.34a.52.52 0 0 1-.51-.53v-1.06c0-.3.23-.53.51-.53.29 0 .52.24.52.53v1.06c0 .3-.23.53-.52.53zM30.81 21.1a.5.5 0 0 1-.35-.15 6.94 6.94 0 0 1-2.1-5.01c0-.3.23-.53.52-.53.28 0 .51.23.51.53 0 1.62.63 3.13 1.78 4.24.2.2.21.54.02.75a.5.5 0 0 1-.38.17z" fill="#116FFF"/>
<path d="M30.32 23.43a.5.5 0 0 1-.3-.1 9.13 9.13 0 0 1-3.72-7.4c0-.29.23-.52.51-.52.29 0 .52.23.52.53 0 2.59 1.23 5.03 3.29 6.52.23.17.29.5.13.74a.51.51 0 0 1-.43.23z" fill="#116FFF"/>
<path d="M29.57 25.46a.5.5 0 0 1-.28-.08 11.19 11.19 0 0 1-5.05-9.44c0-.3.23-.53.51-.53.29 0 .52.23.52.53 0 3.49 1.7 6.68 4.57 8.54.24.16.31.49.16.73a.51.51 0 0 1-.43.25z" fill="#116FFF"/>
<path d="M28.55 27.32a.5.5 0 0 1-.27-.08 13.3 13.3 0 0 1-6.1-11.3c0-.3.22-.53.5-.53.3 0 .52.23.52.53 0 4.26 2.1 8.15 5.63 10.4.24.15.31.47.16.72a.51.51 0 0 1-.44.26z" fill="#116FFF"/>
<path d="M27.29 29a.5.5 0 0 1-.28-.08 15.47 15.47 0 0 1-6.9-12.98c0-.3.23-.53.52-.53.28 0 .51.23.51.53 0 4.92 2.4 9.44 6.43 12.09.24.16.3.49.16.73a.51.51 0 0 1-.44.25z" fill="#116FFF"/>
<path d="M25.78 30.53a.5.5 0 0 1-.3-.1 17.69 17.69 0 0 1-7.43-14.5c0-.29.23-.52.51-.52.29 0 .52.23.52.53 0 5.45 2.61 10.54 6.99 13.62.23.16.3.5.13.73a.51.51 0 0 1-.42.24z" fill="#116FFF"/>
<path d="M24 31.83a.5.5 0 0 1-.3-.1 19.96 19.96 0 0 1-7.71-15.8c0-.29.23-.52.51-.52.29 0 .52.23.52.53 0 5.94 2.66 11.39 7.3 14.94.22.17.27.5.1.74a.5.5 0 0 1-.42.21z" fill="#116FFF"/>
<path d="M21.97 32.9a.5.5 0 0 1-.32-.13 21.98 21.98 0 0 1-7.73-16.83c0-.3.23-.53.52-.53.28 0 .51.23.51.53a20.9 20.9 0 0 0 7.35 16.01c.22.19.25.52.07.75a.5.5 0 0 1-.4.2z" fill="#116FFF"/>
<path d="M19.67 33.64a.5.5 0 0 1-.35-.14 24.32 24.32 0 0 1-7.46-17.56c0-.3.23-.53.52-.53.28 0 .51.23.51.53 0 6.35 2.6 12.47 7.12 16.78.21.2.23.54.03.75a.5.5 0 0 1-.37.17z" fill="#116FFF"/>
<path d="M17.07 33.99a.5.5 0 0 1-.37-.17 26.36 26.36 0 0 1-6.9-17.88c0-.3.23-.53.51-.53.29 0 .52.23.52.53 0 6.4 2.35 12.5 6.62 17.15.2.22.19.55-.02.75a.5.5 0 0 1-.36.15z" fill="#116FFF"/>
<path d="M10.41 18.75c-.04 0-.08 0-.12-.02a12.63 12.63 0 0 1-4.76-2.37.54.54 0 0 1-.1-.74.5.5 0 0 1 .73-.1 11.6 11.6 0 0 0 4.37 2.18c.28.07.45.36.38.65a.52.52 0 0 1-.5.4zM10.7 20.99l-.1-.01a14.71 14.71 0 0 1-8.18-4.68.54.54 0 0 1 .03-.75.5.5 0 0 1 .73.03 13.7 13.7 0 0 0 7.62 4.36c.28.05.46.33.4.62a.52.52 0 0 1-.5.43z" fill="#116FFF"/>
<path d="M11.19 23.22h-.07c-3.55-.5-6.8-2.1-9.41-4.64a.54.54 0 0 1-.02-.75.5.5 0 0 1 .73-.03c2.45 2.4 5.5 3.9 8.84 4.36.28.04.48.31.44.6a.52.52 0 0 1-.51.46zM11.88 25.44h-.04c-3.58-.3-7-1.64-9.87-3.86a.54.54 0 0 1-.1-.74.5.5 0 0 1 .72-.11 17.65 17.65 0 0 0 9.34 3.64c.28.03.5.28.47.58a.52.52 0 0 1-.52.49zM12.8 27.61h-.02a20.7 20.7 0 0 1-9.88-2.86.54.54 0 0 1-.19-.72.5.5 0 0 1 .7-.2 19.68 19.68 0 0 0 9.4 2.72c.28.01.5.26.5.55-.01.29-.24.51-.52.51zM13.4 29.75c-2.97 0-5.87-.57-8.62-1.7a.54.54 0 0 1-.28-.7c.1-.27.4-.4.67-.3a21.55 21.55 0 0 0 8.74 1.63c.3 0 .52.23.53.52 0 .3-.22.54-.5.54a21 21 0 0 1-.53 0zM13.4 31.87c-1.77 0-3.55-.19-5.28-.57a.53.53 0 0 1-.4-.63.52.52 0 0 1 .62-.4c2.24.49 4.6.65 6.9.47.3-.02.53.2.55.49.02.3-.19.55-.47.57-.63.05-1.28.07-1.91.07z" fill="#116FFF"/>
</svg>
