<svg viewBox="0 0 37 37" fill="none" xmlns="http://www.w3.org/2000/svg"><path d="M34.587 8.848v6.064a4.77 4.77 0 0 0-3.218-1.238h-1.608v-1.609a11.18 11.18 0 0 0-2.027-6.435h3.635a3.217 3.217 0 0 1 3.218 3.218zM24.935 23.326h-12.87a4.83 4.83 0 0 1 4.827-4.826h3.217a4.83 4.83 0 0 1 4.826 4.826zM5.63 5.63h3.636a11.18 11.18 0 0 0-2.027 6.435v1.609H5.63a4.77 4.77 0 0 0-3.217 1.239V8.848A3.217 3.217 0 0 1 5.63 5.63z" fill="#CCE4FF"/><path d="M35.391 14.578v-5.73a4.026 4.026 0 0 0-4.021-4.022h-3.248A12.033 12.033 0 0 0 18.5 0c-3.8 0-7.355 1.804-9.622 4.826H5.63A4.026 4.026 0 0 0 1.61 8.848v5.73A5.595 5.595 0 0 0 0 18.5a5.637 5.637 0 0 0 5.63 5.63h.805v.805C6.435 31.587 11.847 37 18.5 37s12.065-5.413 12.065-12.065v-.805h.805A5.637 5.637 0 0 0 37 18.5a5.595 5.595 0 0 0-1.609-3.922zM31.37 6.435a2.416 2.416 0 0 1 2.413 2.413v4.567a5.598 5.598 0 0 0-2.413-.545h-.805v-.805c0-1.982-.48-3.903-1.396-5.63h2.2zM3.217 8.848A2.416 2.416 0 0 1 5.63 6.435h2.201a11.966 11.966 0 0 0-1.396 5.63v.805H5.63c-.843 0-1.666.189-2.413.545V8.848zM1.61 18.5c0-1.144.487-2.232 1.337-2.985l.003-.003.004-.003a3.978 3.978 0 0 1 2.677-1.03h.805v8.043H5.63A4.026 4.026 0 0 1 1.61 18.5zm27.348 6.435c0 5.765-4.691 10.456-10.457 10.456-5.766 0-10.457-4.69-10.457-10.456v-12.87c0-2.15.651-4.215 1.882-5.973l.001-.002a10.44 10.44 0 0 1 17.147-.001l.002.002a10.367 10.367 0 0 1 1.881 5.974v12.87zm2.413-2.413h-.805v-8.044h.805c.992 0 1.944.366 2.677 1.03l.004.003.003.003A3.99 3.99 0 0 1 35.39 18.5a4.026 4.026 0 0 1-4.021 4.022z" fill="#007AFF"/><path d="M20.109 17.696h-.805v-4.022a.805.805 0 0 0-1.608 0v4.022h-.805a5.637 5.637 0 0 0-5.63 5.63c0 .444.36.805.804.805h12.87c.444 0 .804-.36.804-.805a5.637 5.637 0 0 0-5.63-5.63zm-7.158 4.826a4.029 4.029 0 0 1 3.94-3.218h3.218a4.028 4.028 0 0 1 3.94 3.218H12.951zM22.085 27.444a.812.812 0 0 0-1.082.338c-.026.047-.655 1.174-2.503 1.174-1.833 0-2.466-1.106-2.503-1.172a.804.804 0 0 0-1.434.728c.042.083 1.06 2.053 3.937 2.053s3.894-1.97 3.937-2.053a.799.799 0 0 0-.352-1.068zM24.13 12.87a1.61 1.61 0 0 0-1.608 1.608 1.61 1.61 0 0 0 1.609 1.609 1.61 1.61 0 0 0 1.608-1.609 1.61 1.61 0 0 0-1.608-1.608zm.002 1.61l-.001-.002h.804l-.803.003zM12.87 16.087a1.61 1.61 0 0 0 1.608-1.609 1.61 1.61 0 0 0-1.609-1.608 1.61 1.61 0 0 0-1.608 1.608 1.61 1.61 0 0 0 1.608 1.609zm.804-1.609l-.804.003v-.003h.804z" fill="#007AFF"/></svg>
