<svg viewBox="0 0 41 41" fill="none" xmlns="http://www.w3.org/2000/svg"><g clip-path="url(#clip0)"><path d="M35.8 27.33H38c.15 0 .27.12.27.27v9.04c0 .14-.12.26-.27.26h-2.2a.26.26 0 0 1-.27-.26V27.6c0-.15.12-.27.27-.27z" fill="#A4C2F7"/><path d="M3 27.33h2.2c.15 0 .27.12.27.27v9.04c0 .14-.12.26-.27.26H3a.26.26 0 0 1-.27-.26V27.6c0-.15.12-.27.27-.27z" fill="#fff"/><path d="M5.67 27.33h29.66c.49 0 .89.4.89.9V36c0 .5-.4.89-.9.89H5.68a.9.9 0 0 1-.89-.9v-7.78c0-.49.4-.89.9-.89z" fill="url(#paint0_linear)"/><path d="M9.57 40.32H8.2a3.42 3.42 0 0 1-3.42-3.42h4.79v3.42z" fill="#fff"/><path d="M30.75 36.9h5.47a3.42 3.42 0 0 1-3.42 3.42h-2.05V36.9z" fill="#7FACFA"/><path d="M7.52 36.9h25.96v.31a3.1 3.1 0 0 1-3.1 3.1H10.62a3.1 3.1 0 0 1-3.1-3.1v-.31z" fill="#A4C2F7"/><path d="M23.92 23.23h-6.84v4.1h6.84v-4.1z" fill="#D4E1F4"/><path d="M17.08 23.23h-2.05v4.1h2.05v-4.1z" fill="#fff"/><path d="M25.97 23.23h-2.05v4.1h2.05v-4.1zM19.82 18.41v4.82h3.41V18.3a5.35 5.35 0 0 1 1.95-4.21A7.51 7.51 0 0 0 19.62.73l.2 17.68z" fill="#A4C2F7"/><path d="M19.62.73a7.51 7.51 0 0 0-3.84 13.31 5.58 5.58 0 0 1 1.99 4.37v4.82h2.05V18.3a5.35 5.35 0 0 1 1.94-4.21L19.62.73z" fill="#fff"/><path d="M25.97 8.2c0-4.44-2.8-7.98-6.11-7.47-2.45.39-4.45 3.07-4.77 6.42a9.06 9.06 0 0 0 1.98 6.9 6.63 6.63 0 0 1 1.44 4.36v4.82h3.98V18.3a6.33 6.33 0 0 1 1.41-4.21 8.76 8.76 0 0 0 2.07-5.88z" fill="#D4E1F4"/><path d="M37.32 37.58H3.68c-.9 0-1.63-.73-1.63-1.63v-7.67c0-.9.73-1.63 1.63-1.63h33.64c.9 0 1.63.73 1.63 1.63v7.67c0 .9-.73 1.63-1.63 1.63zM3.68 28.02a.26.26 0 0 0-.26.26v7.67c0 .15.11.27.26.27h33.64c.14 0 .26-.12.26-.27v-7.67a.26.26 0 0 0-.26-.26H3.68z" fill="#428DFF"/><path d="M32.8 41H8.2a4.1 4.1 0 0 1-4.1-4.1v-.68h32.8v.68a4.1 4.1 0 0 1-4.1 4.1zM5.55 37.58a2.74 2.74 0 0 0 2.65 2.05h24.6c1.25 0 2.33-.84 2.65-2.05H5.55zM26.65 28.02h-12.3v-5.47h12.3v5.47zm-10.93-1.37h9.56v-2.73h-9.56v2.73z" fill="#428DFF"/><path d="M23.92 23.92h-6.84V18.4a4.93 4.93 0 0 0-1.73-3.84 8.17 8.17 0 0 1-2.5-9.35.68.68 0 0 1 1.28.5 6.81 6.81 0 0 0 2.08 7.8 6.23 6.23 0 0 1 2.24 4.9v4.13h4.1V18.3a5.99 5.99 0 0 1 2.2-4.75 6.83 6.83 0 0 0-7.98-11.07.68.68 0 1 1-.74-1.14 8.2 8.2 0 0 1 9.58 13.28 4.7 4.7 0 0 0-1.7 3.68v5.63z" fill="#428DFF"/><path d="M14.58 4.09a.68.68 0 1 0 0-1.37.68.68 0 0 0 0 1.37z" fill="#428DFF"/></g><defs><linearGradient id="paint0_linear" x1="10.51" y1="22.13" x2="12.52" y2="43.77" gradientUnits="userSpaceOnUse"><stop stop-color="#D3DFF2"/><stop offset=".17" stop-color="#D3DFF2"/><stop offset=".2" stop-color="#D3DFF2"/><stop offset=".2" stop-color="#DAE2F2"/><stop offset=".2" stop-color="#EBEAF2"/><stop offset=".2" stop-color="#F6EFF2"/><stop offset=".2" stop-color="#FDF2F2"/><stop offset=".2" stop-color="#FFF3F2"/><stop offset=".25" stop-color="#FFF3F2"/><stop offset=".26" stop-color="#D3DFF2"/><stop offset=".4" stop-color="#D3DFF2"/><stop offset=".42" stop-color="#D3DFF2"/><stop offset=".42" stop-color="#DAE2F2"/><stop offset=".42" stop-color="#EBEAF2"/><stop offset=".42" stop-color="#F6EFF2"/><stop offset=".42" stop-color="#FDF2F2"/><stop offset=".42" stop-color="#FFF3F2"/><stop offset=".49" stop-color="#FFF3F2"/><stop offset=".5" stop-color="#F8F0F2"/><stop offset=".5" stop-color="#E7E8F2"/><stop offset=".5" stop-color="#DCE3F2"/><stop offset=".5" stop-color="#D5E0F2"/><stop offset=".5" stop-color="#D3DFF2"/><stop offset=".71" stop-color="#D3DFF2"/><stop offset=".74" stop-color="#D3DFF2"/><stop offset=".74" stop-color="#FFF3F2"/><stop offset=".83" stop-color="#FFF3F2"/><stop offset=".85" stop-color="#FFF3F2"/><stop offset=".85" stop-color="#D3DFF2"/></linearGradient><clipPath id="clip0"><path fill="#fff" d="M0 0h41v41H0z"/></clipPath></defs></svg>
