<svg viewBox="0 0 40 40" fill="none" xmlns="http://www.w3.org/2000/svg"><g clip-path="url(#clip0)"><path d="M38.57 17.63a2.07 2.07 0 0 0-1.14-3.52l-9.69-1.41a2.07 2.07 0 0 1-1.55-1.13l-4.34-8.78a2.06 2.06 0 0 0-2.45-1.06c-.19-.17-.34-.08-.56.28-.3.2-.54.46-.7.78l-.9 1.84-4.47 6.94c-.3.6-.88 1.03-1.56 1.13l-5.29.92-3.35.49a2.07 2.07 0 0 0-1.14 3.52l7 6.83c.5.48.71 1.16.6 1.84l-1.66 9.64a2.07 2.07 0 0 0 2.38 2.4 2 2 0 0 0 1.29-.22l8.66-4.55c.2-.1.41-.17.63-.2.22.03.43.1.63.2l8.66 4.55a2.07 2.07 0 0 0 3-2.18l-1.65-9.64c-.11-.68.1-1.36.6-1.84l7-6.83z" fill="url(#paint0_linear)"/><path d="M1.43 17.63a2.07 2.07 0 0 1 1.14-3.52l9.69-1.41c.67-.1 1.25-.52 1.55-1.13l4.34-8.78a2.06 2.06 0 0 1 2.45-1.06 4.9 4.9 0 0 0-.62 1.06l-3 8.78c-.31.6-.9 1.03-1.57 1.13l-9.68 1.4a2.07 2.07 0 0 0-1.15 3.53l7.01 6.83c.49.48.71 1.16.6 1.84l-1.66 9.64c-.21 1.24.28 1.48 1.15 1.22.02.08.05.15.1.22l-1.4.74a2.07 2.07 0 0 1-3-2.18l1.65-9.64c.11-.68-.1-1.36-.6-1.84l-7-6.83z" fill="#fff"/><path d="M30.59 39.16c-.47 0-.93-.11-1.34-.33l-8.66-4.55c-.37-.2-.81-.2-1.18 0l-8.66 4.55a2.87 2.87 0 0 1-4.16-3.02l1.65-9.65c.07-.41-.07-.83-.37-1.12l-7-6.83a2.87 2.87 0 0 1 1.59-4.9l9.68-1.4c.41-.06.77-.32.96-.7l4.33-8.77a2.87 2.87 0 0 1 5.14 0l4.33 8.77c.19.38.54.64.96.7l9.68 1.4a2.87 2.87 0 0 1 1.6 4.9l-7.01 6.83c-.3.29-.44.7-.37 1.12l1.65 9.65a2.87 2.87 0 0 1-2.82 3.35zM20 32.53c.46 0 .92.11 1.33.33L30 37.4a1.27 1.27 0 0 0 1.84-1.33l-1.66-9.65c-.16-.93.15-1.88.83-2.54l7-6.83a1.27 1.27 0 0 0-.7-2.16l-9.68-1.4a2.87 2.87 0 0 1-2.16-1.58l-4.33-8.77a1.27 1.27 0 0 0-2.28 0l-4.33 8.77a2.87 2.87 0 0 1-2.16 1.57L2.7 14.9a1.27 1.27 0 0 0-.7 2.17l7 6.83c.68.66.99 1.61.83 2.54l-1.66 9.65A1.27 1.27 0 0 0 10 37.4l8.66-4.55c.42-.22.87-.33 1.34-.33z" fill="#428DFF"/></g><defs><linearGradient id="paint0_linear" x1="6.57" y1="9.52" x2="32.18" y2="37.52" gradientUnits="userSpaceOnUse"><stop stop-color="#D4E1F4"/><stop offset=".17" stop-color="#D4E1F4"/><stop offset=".2" stop-color="#D4E1F4"/><stop offset=".2" stop-color="#DAE4F4"/><stop offset=".2" stop-color="#EBEBF4"/><stop offset=".2" stop-color="#F6F1F4"/><stop offset=".2" stop-color="#FDF4F4"/><stop offset=".2" stop-color="#FFF5F4"/><stop offset=".25" stop-color="#FFF5F4"/><stop offset=".26" stop-color="#D4E1F4"/><stop offset=".4" stop-color="#D4E1F4"/><stop offset=".42" stop-color="#D4E1F4"/><stop offset=".42" stop-color="#DAE4F4"/><stop offset=".42" stop-color="#EBEBF4"/><stop offset=".42" stop-color="#F6F1F4"/><stop offset=".42" stop-color="#FDF4F4"/><stop offset=".42" stop-color="#FFF5F4"/><stop offset=".49" stop-color="#FFF5F4"/><stop offset=".5" stop-color="#F9F2F4"/><stop offset=".5" stop-color="#E8EBF4"/><stop offset=".5" stop-color="#DDE5F4"/><stop offset=".5" stop-color="#D6E2F4"/><stop offset=".5" stop-color="#D4E1F4"/><stop offset=".71" stop-color="#D4E1F4"/><stop offset=".74" stop-color="#D4E1F4"/><stop offset=".74" stop-color="#FFF5F4"/><stop offset=".83" stop-color="#FFF5F4"/><stop offset=".85" stop-color="#FFF5F4"/><stop offset=".85" stop-color="#D4E1F4"/></linearGradient><clipPath id="clip0"><path fill="#fff" d="M0 0h40v40H0z"/></clipPath></defs></svg>
